<svg width="600" height="600" xmlns="http://www.w3.org/2000/svg">

 <g>
  <title>Layer 1</title>
  <path stroke="#000000" d="m494.25199,32.62623l-93.56222,148.7977l-10.09823,-40.01346l-36.98767,108.90174l76.69145,-35.95581l0.26929,36.03293l155.48823,-62.34952l-86.67707,-2.41133l58.48649,-84.07356l-89.92931,48.04308l26.31659,-116.97298l0.00245,0.00122zm-248.66733,39.399l-39.16888,17.63334l20.65424,68.12448l-217.64803,97.95893l15.37868,34.12099l217.64558,-97.9981l37.21778,60.55265l60.36047,-27.16117l-26.12565,-86.10178l-68.31298,-67.12935l-0.00122,0zm-15.4558,201.58021l0,24.90284l-108.8234,0c19.5771,47.50084 62.70082,80.08813 108.8234,90.92077l0,40.35619l71.68151,0c-14.83277,37.36712 -41.01105,68.15875 -71.5689,94.9772l-31.16986,0l0,22.87218l348.04002,0l0,-22.87096l-33.5457,0c-35.17121,-26.80009 -61.2687,-57.55133 -75.4307,-94.97842l77.91915,0l0,-35.72692c24.1721,-8.56207 48.34909,-23.88078 72.52364,-44.9059c-24.25044,-21.44864 -48.0186,-33.35475 -72.52364,-39.09299l0,-36.45154l-285.92429,0l-0.00122,-0.00245z" fill="#ffffff"/>
  <text transform="matrix(9.01203 0 0 7.35052 -1280.55 -980.905)" stroke="#000000" font-weight="bold" xml:space="preserve" text-anchor="start" font-family="'Maven Pro'" font-size="24" stroke-width="0" id="svg_1" y="189.91734" x="167.97023" fill="#1e3c74">FM</text>
 </g>
</svg>