<svg xmlns="http://www.w3.org/2000/svg" viewBox="0 0 24 24" fill="currentColor">
  <path d="M4.5 2.25a.75.75 0 0 0-.75.75v3.5a.75.75 0 0 0 .75.75h1.25v10.5a.75.75 0 0 0 .75.75h2.25a.75.75 0 0 0 .75-.75V7.25H10.5a.75.75 0 0 0 .75-.75V5.25h2.25v1.25a.75.75 0 0 0 .75.75h1.25v10.5a.75.75 0 0 0 .75.75h2.25a.75.75 0 0 0 .75-.75V7.25h1.25a.75.75 0 0 0 .75-.75v-3.5a.75.75 0 0 0-.75-.75H4.5ZM3 6.5v-3.5A2.25 2.25 0 0 1 5.25.75h13.5A2.25 2.25 0 0 1 21 3v3.5a2.25 2.25 0 0 1-2.25 2.25h-.75v9a2.25 2.25 0 0 1-2.25 2.25h-2.25A2.25 2.25 0 0 1 11.25 18V9.25h-1.5V18A2.25 2.25 0 0 1 7.5 20.25H5.25A2.25 2.25 0 0 1 3 18V9.25h-.75A2.25 2.25 0 0 1 0 6.5v-3.5A2.25 2.25 0 0 1 2.25.75h1.5v-.5a.75.75 0 0 1 1.5 0v.5h13.5v-.5a.75.75 0 0 1 1.5 0v.5h1.5A2.25 2.25 0 0 1 24 3v3.5a2.25 2.25 0 0 1-2.25 2.25H3ZM14.5 3.75h-5a.75.75 0 0 0 0 1.5h5a.75.75 0 0 0 0-1.5Z"/>
</svg>